<svg width="42" height="42" viewBox="0 0 42 42" fill="none" xmlns="http://www.w3.org/2000/svg">
<path fill-rule="evenodd" clip-rule="evenodd" d="M31.4167 21.5885C32.7551 19.2708 33.4199 17.3532 33.4199 15.9777C33.4199 8.93889 27.6206 2.53407 21 2.53407C14.3793 2.53407 8.58013 8.93889 8.58013 15.9777C8.58013 16.0116 8.57628 16.0449 8.56891 16.077C8.48563 16.697 7.94936 17.1754 7.30023 17.1754C6.69511 17.1754 6.18807 16.7597 6.05463 16.201C6.03239 16.1315 6.02032 16.0567 6.02032 15.9777C6.02032 15.9598 6.02035 15.942 6.02042 15.9241C6.02035 15.9188 6.02032 15.9136 6.02032 15.9084C6.02032 15.9038 6.02033 15.8993 6.02039 15.8948C6.02044 15.8898 6.02053 15.8848 6.02063 15.8798C6.07383 7.72588 12.7599 0 21 0C29.2731 0 35.9796 6.42904 35.9796 15.9777C35.9796 24.1677 21 37.8234 21 37.8234C21 37.8234 10.9954 28.703 7.33848 20.8992C7.16611 20.6752 7.06321 20.3924 7.06321 20.0849C7.06321 19.3592 7.63625 18.771 8.34311 18.771C8.93505 18.771 9.43313 19.1835 9.57945 19.7437L9.61536 19.7349C9.88505 20.3193 10.2076 20.938 10.5832 21.5885C11.8838 23.8409 13.6526 26.188 15.4747 28.3472C17.2887 30.4967 19.1098 32.4063 20.4811 33.7815C20.6626 33.9635 20.8358 34.1357 21 34.2977C21.1642 34.1357 21.3374 33.9635 21.5189 33.7815C22.8902 32.4063 24.7114 30.4967 26.5253 28.3472C28.3474 26.188 30.1163 23.8409 31.4167 21.5885ZM21 18.3017C22.9374 18.3017 24.5079 16.7469 24.5079 14.829C24.5079 12.9112 22.9374 11.3564 21 11.3564C19.0626 11.3564 17.4921 12.9112 17.4921 14.829C17.4921 16.7469 19.0626 18.3017 21 18.3017ZM21 21.0235C24.4559 21.0235 27.2573 18.25 27.2573 14.829C27.2573 11.408 24.4559 8.63464 21 8.63464C17.5441 8.63464 14.7427 11.408 14.7427 14.829C14.7427 18.25 17.5441 21.0235 21 21.0235ZM33.9407 28.7607C34.6507 28.3717 35.5449 28.626 35.938 29.3289L41.8161 39.8407C42.0681 40.2913 42.0607 40.8403 41.7965 41.2839C41.5322 41.7277 41.0508 42 40.5305 42H1.46953C0.947457 42 0.464581 41.7258 0.201017 41.2797C-0.0625475 40.8336 -0.0672273 40.2826 0.188723 39.8321L6.16163 29.3204C6.55953 28.62 7.45552 28.3717 8.16289 28.7656C8.87026 29.1595 9.12114 30.0464 8.72324 30.7468L3.9822 39.0905H38.0373L33.3667 30.7381C32.9737 30.0351 33.2306 29.1499 33.9407 28.7607Z" fill="#8B6E4B"/>
</svg>
