<svg width="46" height="31" viewBox="0 0 46 31" fill="none" xmlns="http://www.w3.org/2000/svg">
<path fill-rule="evenodd" clip-rule="evenodd" d="M33.2401 15.2006C35.7802 14.8227 38.3906 15.6049 40.4033 17.3452C42.337 19.0152 43.4444 21.3619 43.4444 23.7965V27.3123C43.4444 27.7291 43.3464 28.1242 43.1722 28.4756H44.933C45.3713 28.4756 45.73 28.8711 45.73 29.3545C45.73 29.8379 45.3713 30.2334 44.933 30.2334H6.70199C6.26365 30.2334 5.90501 29.8379 5.90501 29.3545C5.90501 28.8711 6.26365 28.4756 6.70199 28.4756H20.3635C19.2167 27.5993 15.2994 24.5949 1.93261 14.3393C0.587849 13.4691 0.32417 11.6146 1.37889 10.4017C1.40437 10.3698 1.47602 10.301 5.37907 6.55399C6.86094 5.13135 8.8951 3.1785 11.6887 0.496144C12.0403 0.162151 12.5764 0.17094 12.9192 0.504933L12.9289 0.514536C14.9967 2.55605 16.0351 3.58118 18.8696 3.58118H21.3218C21.6118 3.58118 21.8843 3.7306 22.0513 3.9767C22.9535 5.32816 23.7342 6.73638 24.4802 8.08226C25.4712 9.86994 26.4012 11.5476 27.4743 12.8363C29.0476 14.7172 30.7527 15.5698 33.2401 15.2006ZM18.8608 5.33904C15.6439 5.33904 14.1585 4.17006 12.2864 2.35068L8.70915 5.78729C9.9836 6.48164 11.5481 6.31465 12.6468 5.40056C12.9192 5.16325 13.3147 5.1281 13.6312 5.30388C16.4261 6.84202 18.4653 7.5012 21.7437 6.81564C21.4712 6.3498 21.1636 5.84003 20.8384 5.33904H18.8608ZM40.8076 28.1912C41.291 28.1912 41.6866 27.7957 41.6866 27.3123V26.4333H24.1256C23.6334 26.4333 23.15 26.3015 22.7281 26.0378C22.7094 26.0253 22.0212 25.4981 20.5123 24.342C17.7653 22.2372 12.298 18.0482 3.19827 11.0872L2.6797 11.5882C2.3545 12.0013 2.45118 12.6078 2.89943 12.889C2.91793 12.8952 2.93211 12.9057 2.94802 12.9175C2.95479 12.9225 2.96188 12.9277 2.96975 12.933L21.8579 27.4089C22.5962 27.9187 23.4664 28.1912 24.3629 28.1912H40.8076ZM24.1256 24.6755H41.669V23.779C41.669 21.8541 40.7813 19.9908 39.2344 18.6548C37.6083 17.2573 35.5077 16.6245 33.4774 16.9233C32.4842 17.0727 31.5437 17.0639 30.6736 16.8882L29.153 18.4087C28.8103 18.7515 28.2565 18.7515 27.9137 18.4087C27.571 18.0659 27.571 17.5122 27.9137 17.1694L28.8366 16.2465C28.1071 15.8598 27.4128 15.3412 26.7536 14.6645L25.6461 15.7719C25.3033 16.1147 24.7496 16.1147 24.4068 15.7719C24.064 15.4291 24.064 14.8754 24.4068 14.5326L25.6197 13.3197C25.1012 12.6254 24.6178 11.8695 24.1695 11.1048L22.1392 13.1351C21.7964 13.4779 21.2427 13.4779 20.8999 13.1351C20.5571 12.7924 20.5571 12.2386 20.8999 11.8958L23.273 9.52275C23.166 9.3344 23.0673 9.1544 22.9699 8.97663C22.8672 8.7894 22.766 8.60466 22.6578 8.41529C21.4185 8.71412 20.3286 8.85475 19.3178 8.85475C17.1557 8.85475 15.3626 8.21313 13.2884 7.11447C11.5305 8.26587 9.20135 8.28345 7.40834 7.04416L4.48151 9.85674L23.6949 24.5612C23.8267 24.6315 23.9762 24.6755 24.1256 24.6755Z" fill="#8B6E4B"/>
</svg>
