<svg width="44" height="31" viewBox="0 0 44 31" fill="none" xmlns="http://www.w3.org/2000/svg">
<g clip-path="url(#clip0)">
<path fill-rule="evenodd" clip-rule="evenodd" d="M5.15506 10.591L2.31089 14.9966C2.05942 15.3853 1.92042 15.8448 1.92042 16.3311V22.9358C1.92042 24.2916 2.96378 25.3381 4.20259 25.3381H39.3277C40.5665 25.3381 41.6099 24.2916 41.6099 22.9358V16.8715C41.6099 16.0326 41.3555 15.2105 40.9166 14.5122C40.9159 14.5112 40.9153 14.5101 40.9146 14.5091L38.3781 10.5664L33.4638 10.5669C30.2698 10.5674 26.0116 10.5683 21.7542 10.5702C17.4969 10.5721 13.2406 10.5749 10.0507 10.5791C8.45571 10.5812 7.12768 10.5837 6.19952 10.5865C5.75359 10.5879 5.4007 10.5894 5.15506 10.591ZM38.7873 9.81641V9.06641H39.1966L42.184 13.7099C42.7647 14.6321 43.1099 15.7301 43.1099 16.8715V22.9358C43.1099 25.0625 41.4513 26.8381 39.3277 26.8381H4.20259C2.07899 26.8381 0.420422 25.0625 0.420422 22.9358V16.3311C0.420422 15.5567 0.641992 14.8149 1.0508 14.1829C1.0509 14.1827 1.05069 14.183 1.0508 14.1829L4.11287 9.43965L4.25096 9.5288C4.3407 9.31017 4.46696 9.15306 4.53396 9.12603C4.57342 9.11571 4.6315 9.10458 4.65002 9.10201C4.67638 9.09868 4.69821 9.09739 4.70365 9.09707C4.71958 9.09613 4.73548 9.09562 4.74489 9.09535C4.76655 9.09473 4.79506 9.09422 4.82761 9.09377C4.89401 9.09285 4.99103 9.09199 5.11537 9.09116C5.36468 9.0895 5.73026 9.08796 6.19488 9.08652C7.12442 9.08365 8.45353 9.08118 10.0488 9.07907C13.2393 9.07485 17.4961 9.07204 21.7536 9.07016C26.0111 9.06828 30.2695 9.06735 33.4636 9.06688L38.7873 9.06641C38.7876 9.06641 38.7873 9.06641 38.7873 9.81641Z" fill="#8B6E4B"/>
<path fill-rule="evenodd" clip-rule="evenodd" d="M0.420207 16.6015C0.420207 15.4874 1.34719 14.4413 2.56528 14.6627L2.57458 14.6644L8.41269 15.8022C9.17262 15.9202 9.69966 16.5103 9.8806 17.1888L9.88106 17.1905L10.3004 18.7782C10.3006 18.7789 10.3008 18.7795 10.3009 18.7801C10.4644 19.3896 10.3355 20.0071 10.0251 20.4757C9.71494 20.9439 9.18354 21.3143 8.52547 21.3143H2.22096C1.12816 21.3143 0.384278 20.354 0.420207 19.319V16.6015ZM2.07001 16.2179C1.98938 16.2946 1.92021 16.427 1.92021 16.6015V19.3498L1.9195 19.366C1.90476 19.7052 2.11927 19.8143 2.22096 19.8143H8.52547C8.58792 19.8143 8.68698 19.7795 8.77461 19.6473C8.86164 19.5159 8.8979 19.3386 8.85201 19.1682L8.85109 19.1648L8.43125 17.5753C8.43119 17.5751 8.43131 17.5755 8.43125 17.5753C8.37363 17.3601 8.24837 17.2938 8.17924 17.2839L8.16046 17.2812L2.29388 16.138C2.22475 16.1264 2.14699 16.1446 2.07001 16.2179Z" fill="#8B6E4B"/>
<path fill-rule="evenodd" clip-rule="evenodd" d="M41.176 16.1077L35.3095 17.2509L35.2907 17.2536C35.2215 17.2635 35.0962 17.3292 35.0387 17.545L35.0367 17.5525L34.5873 19.1702C34.5423 19.3399 34.5786 19.5162 34.6653 19.647C34.7529 19.7792 34.852 19.814 34.9144 19.814H41.2189C41.2825 19.814 41.352 19.7884 41.4177 19.7126C41.4856 19.6343 41.5497 19.4973 41.5497 19.3031V16.5712C41.5497 16.3967 41.4805 16.2643 41.3999 16.1876C41.3229 16.1143 41.2452 16.096 41.176 16.1077ZM40.9046 14.6324C42.1227 14.4109 43.0497 15.4571 43.0497 16.5712V19.3031C43.0497 20.3335 42.3307 21.314 41.2189 21.314H34.9144C34.2564 21.314 33.725 20.9436 33.4148 20.4754C33.1041 20.0063 32.9752 19.388 33.1395 18.7779L33.141 18.7722L33.5904 17.1543C33.7724 16.4775 34.2989 15.8896 35.0572 15.7719L40.9046 14.6324Z" fill="#8B6E4B"/>
<path fill-rule="evenodd" clip-rule="evenodd" d="M13.8261 1.99281C11.4383 2.32841 9.49992 2.8268 8.30425 3.45538L8.30326 3.4559C7.86262 3.68671 7.52648 4.09615 7.34043 4.60544L5.77169 9.06655H37.7376L36.2202 4.63656C36.0138 4.0929 35.6334 3.67472 35.151 3.43304C33.9254 2.82758 31.9628 2.33975 29.5645 2.00609C27.1833 1.67481 24.4364 1.50378 21.6853 1.50006C18.934 1.49635 16.194 1.66 13.8261 1.99281ZM29.7712 0.520397C32.2137 0.860199 34.3709 1.37406 35.8173 2.08918L35.8204 2.09068C36.6554 2.50819 37.2936 3.22709 37.6282 4.11932L37.632 4.12942L39.837 10.5666H3.65418L5.92942 4.09632C6.22392 3.28646 6.78776 2.55659 7.60673 2.12742C9.03795 1.37514 11.186 0.849127 13.6173 0.507408C16.0688 0.162855 18.8809 -0.00372668 21.6873 6.3219e-05C24.494 0.00385342 27.3105 0.178063 29.7712 0.520397Z" fill="#8B6E4B"/>
<path fill-rule="evenodd" clip-rule="evenodd" d="M13.9391 16.6826C13.9379 16.6908 13.9352 16.7114 13.9584 16.7542L13.9634 16.7634L15.2876 19.2915L15.2907 19.2978C15.3359 19.3881 15.5583 19.5737 15.9408 19.5737H27.5592C27.9237 19.5737 28.1738 19.419 28.2945 19.2494L29.5924 16.7716C29.6125 16.7298 29.6117 16.7044 29.6092 16.6885C29.606 16.6681 29.5939 16.6305 29.5522 16.5825C29.4666 16.4839 29.2651 16.3604 28.9402 16.3604H14.6199C14.2926 16.3604 14.0819 16.4857 13.9929 16.5867C13.9503 16.635 13.9411 16.6694 13.9391 16.6826ZM12.8677 15.5947C13.2815 15.1253 13.9265 14.8604 14.6199 14.8604H28.9402C29.636 14.8604 30.275 15.1271 30.6848 15.5989C31.1081 16.0865 31.263 16.7846 30.9319 17.4468L30.9288 17.4532L29.5891 20.0108L29.571 20.0388C29.145 20.7015 28.38 21.0737 27.5592 21.0737H15.9408C15.185 21.0737 14.3298 20.7212 13.9527 19.9759L12.6367 17.4634C12.2763 16.7929 12.4372 16.083 12.8677 15.5947Z" fill="#8B6E4B"/>
<path fill-rule="evenodd" clip-rule="evenodd" d="M37.1365 7.11453C37.1365 6.21116 37.9349 5.58398 38.7571 5.58398H41.8793C42.7015 5.58398 43.4999 6.21116 43.4999 7.11453V8.4655C43.4999 9.24669 42.9109 9.86801 42.1856 9.98543L39.0052 10.5664H38.7878L38.7871 9.06647H38.8688L41.935 8.50638L41.9454 8.50478C41.9645 8.50185 41.9808 8.49226 41.9913 8.48041C41.9962 8.4749 41.9984 8.47051 41.9993 8.46838C41.9996 8.46747 41.9998 8.46688 41.9999 8.46644C41.9999 8.46606 41.9999 8.46672 41.9999 8.46644V7.13125C41.998 7.12902 41.9953 7.12618 41.9916 7.12279C41.9704 7.10361 41.9315 7.08398 41.8793 7.08398H38.7571C38.7049 7.08398 38.666 7.10361 38.6448 7.12279C38.6411 7.12619 38.6384 7.12902 38.6365 7.13125V7.35471H37.1365V7.11453ZM38.6324 7.13702C38.6323 7.137 38.6325 7.13651 38.6332 7.13556L38.6324 7.13702ZM42.004 7.13701C42.004 7.13702 42.0037 7.13655 42.0032 7.13555L42.004 7.13701Z" fill="#8B6E4B"/>
<path fill-rule="evenodd" clip-rule="evenodd" d="M0 7.11453C0 6.24423 0.732759 5.58398 1.5906 5.58398H4.71284C5.53501 5.58398 6.33346 6.21116 6.33346 7.11453V7.35471H4.83346V7.13125C4.83155 7.12902 4.82884 7.12619 4.82509 7.12279C4.80389 7.10361 4.76505 7.08398 4.71284 7.08398H1.5906C1.54164 7.08398 1.5167 7.10093 1.50673 7.11039C1.503 7.11394 1.501 7.11659 1.5 7.11821V8.44711C1.5019 8.44987 1.50468 8.45348 1.50861 8.45789C1.52799 8.47962 1.56011 8.5014 1.59864 8.51254L4.63068 9.06647H4.71266L4.71284 10.5664H4.49478L1.2887 9.98074L1.27185 9.97685C0.61384 9.825 0 9.24438 0 8.4655V7.11453ZM1.49912 7.12007C1.49908 7.12006 1.49966 7.11887 1.5 7.11821L1.49912 7.12007ZM4.83755 7.13701C4.8375 7.13702 4.83719 7.13655 4.83676 7.13555L4.83755 7.13701Z" fill="#8B6E4B"/>
<path fill-rule="evenodd" clip-rule="evenodd" d="M41.2195 28.1294V24.4668H42.7195V28.1294C42.7195 29.5944 41.5431 30.7708 40.0781 30.7708H36.0252C34.5603 30.7708 33.3839 29.5944 33.3839 28.1294V26.0887L34.8839 26.088V28.1294C34.8839 28.766 35.3887 29.2708 36.0252 29.2708H40.0781C40.7147 29.2708 41.2195 28.766 41.2195 28.1294Z" fill="#8B6E4B"/>
<path fill-rule="evenodd" clip-rule="evenodd" d="M2.28052 24.4668V28.1294C2.28052 28.766 2.78534 29.2708 3.42188 29.2708H7.44476C8.08129 29.2708 8.58611 28.766 8.58611 28.1294V26.0887L10.0861 26.088V28.1294C10.0861 29.5944 8.90972 30.7708 7.44476 30.7708H3.42188C1.95691 30.7708 0.780521 29.5944 0.780521 28.1294V24.4668H2.28052Z" fill="#8B6E4B"/>
</g>
<defs>
<clipPath id="clip0">
<rect width="44" height="31" fill="white"/>
</clipPath>
</defs>
</svg>
