<svg width="48" height="33" viewBox="0 0 48 33" fill="none" xmlns="http://www.w3.org/2000/svg">
<path d="M31.467 1C22.942 1 15.967 7.975 15.967 16.5C15.967 25.025 22.942 32 31.467 32C39.992 32 46.967 25.025 46.967 16.5C46.967 7.975 39.992 1 31.467 1ZM31.467 30.9646C23.5112 30.9646 17.0024 24.4559 17.0024 16.5C17.0024 8.54414 23.5112 2.03535 31.467 2.03535C39.4229 2.03535 45.9377 8.54414 45.9377 16.5C45.9377 24.4559 39.4229 30.9646 31.467 30.9646Z" fill="#8B6E4B" stroke="#8B6E4B" stroke-width="0.4"/>
<path d="M33.3202 5.28696L33.1264 5.23852C32.8661 5.18403 32.6602 5.13559 32.4059 5.13559C31.8368 5.0811 31.1647 5.0811 30.5956 5.13559C30.3352 5.19009 30.1294 5.19009 29.8751 5.23852L29.4089 5.29302V5.32934C26.6903 5.83188 24.2987 7.31528 22.6276 9.39204L22.5913 9.37388L22.3309 9.73716C21.8163 10.4576 21.3501 11.1842 21.0413 11.9592L20.8839 12.3709L20.8899 12.377C20.3874 13.6606 20.1089 15.0532 20.1089 16.5063C20.1089 17.693 20.2905 18.8373 20.6356 19.9151L20.6296 19.9211L20.787 20.3873C21.0473 21.0594 21.3561 21.7315 21.7194 22.3491C21.7194 22.452 21.7739 22.5065 21.8223 22.5549C21.9253 22.7123 22.0827 22.9182 22.1856 23.0696L22.446 23.3783C24.4077 25.9516 27.435 27.6651 30.8559 27.8588C31.0557 27.877 31.2676 27.877 31.4856 27.877C31.7036 27.877 31.9155 27.877 32.1153 27.8588C35.4938 27.6711 38.4909 25.994 40.4526 23.4752L40.4768 23.4873L40.7372 23.1241C40.8946 22.9666 40.9975 22.7608 41.1005 22.6094C41.1005 22.5852 41.1126 22.5549 41.1247 22.5246C41.1489 22.4883 41.1731 22.452 41.1973 22.4096C41.2034 22.4035 41.2034 22.4035 41.2094 22.3975C41.2276 22.3612 41.2518 22.3248 41.27 22.2885C42.2811 20.5932 42.8624 18.6133 42.8624 16.5063C42.8382 10.8754 38.6967 6.177 33.3202 5.28696ZM32.5028 22.1856V26.7811C32.4483 26.7811 32.3514 26.7811 32.2969 26.7811C31.7278 26.8356 31.2132 26.8356 30.644 26.7811C30.6198 26.7811 30.5774 26.7811 30.5411 26.7811V22.1856C30.5411 21.4106 30.1778 20.7385 29.5057 20.3268C28.8337 19.9151 28.0587 19.9151 27.3866 20.2239L22.894 22.1311C22.8395 22.0766 22.8395 22.0282 22.7911 21.9737L22.6882 21.8162C22.4278 21.4045 22.2219 20.9867 22.0161 20.5266L26.1514 18.9766L26.2059 18.9221C26.7751 18.6133 27.1868 17.9412 27.2897 17.1662C27.3926 16.3912 27.1868 15.6162 26.6721 15.1016L22.1796 12.0016C22.3975 11.5535 22.6458 11.1297 22.9243 10.718L26.9325 12.7221C27.6046 13.1883 28.5854 13.1883 29.3604 12.7766C30.0325 12.3649 30.4442 11.7412 30.4442 10.9662V6.21938C30.4987 6.21938 30.5956 6.21938 30.6501 6.21938C31.2192 6.16489 31.7883 6.16489 32.303 6.21938C32.3514 6.21938 32.4544 6.21938 32.5089 6.21938V11.0268C32.5089 11.6989 32.8176 12.3164 33.3868 12.6797C34.1073 13.0914 35.1426 13.1459 35.9721 12.7826L40.0046 10.718C40.2649 11.1297 40.5192 11.5959 40.7251 12.0076L36.3354 15.0532L36.2809 15.1076C35.7663 15.5739 35.5604 16.3489 35.6634 17.1723C35.7663 17.9473 36.178 18.6194 36.7471 18.9282L40.9854 20.4782C40.7796 20.9444 40.5737 21.3561 40.3134 21.7678L40.2104 21.9252C40.1559 21.9797 40.1559 22.0282 40.1075 22.0826L35.6634 20.2239C34.9913 19.8606 34.2163 19.9151 33.5442 20.3268C32.9145 20.7385 32.5028 21.4106 32.5028 22.1856ZM37.2073 18.1047C36.8985 17.8989 36.6926 17.5356 36.6382 17.1239C36.5837 16.6576 36.6926 16.1914 36.9469 15.9371L41.1852 12.9946C41.5848 14.0905 41.8028 15.2711 41.8028 16.5063C41.8028 17.5901 41.6333 18.6375 41.3184 19.6184L37.2073 18.1047ZM39.393 9.88247L35.4999 11.8502C35.0337 12.1106 34.3616 12.0561 33.9499 11.7957C33.6895 11.6383 33.5382 11.384 33.5382 11.0207V6.3768C35.8632 6.85512 37.9157 8.12055 39.393 9.88247ZM29.4028 6.3768V10.9723C29.4028 11.4385 29.1425 11.6928 28.8882 11.8502C28.4219 12.0561 27.8528 12.0561 27.4411 11.7957L23.5661 9.85825C25.0434 8.10845 27.0839 6.84907 29.4028 6.3768ZM21.1382 16.5002C21.1382 15.2651 21.3561 14.0783 21.7618 12.9764L25.9456 15.8766C26.2059 16.1369 26.3089 16.5971 26.2544 17.0633C26.1514 17.5295 25.994 17.8928 25.6852 18.0442L21.5983 19.5457C21.2956 18.583 21.1382 17.5598 21.1382 16.5002ZM23.4147 22.9545L27.6954 21.1502C28.0587 20.9444 28.4704 20.9928 28.8337 21.2047C29.1969 21.4106 29.4028 21.7739 29.4028 22.1856V26.6237C27.0051 26.1332 24.8981 24.8012 23.4147 22.9545ZM33.5382 26.6237V22.1856C33.5382 21.7739 33.744 21.4106 34.0528 21.2047C34.4161 20.9989 34.8278 20.9444 35.2395 21.1502L39.4596 23.0332C37.9823 24.8375 35.9055 26.1393 33.5382 26.6237Z" fill="#8B6E4B" stroke="#8B6E4B" stroke-width="0.4"/>
<path d="M31.4675 13.915C30.0204 13.915 28.8821 15.0533 28.8821 16.5004C28.8821 17.9474 30.0204 19.0857 31.4675 19.0857C32.9146 19.0857 34.0528 17.9474 34.0528 16.5004C34.0528 15.0533 32.9146 13.915 31.4675 13.915ZM31.4675 18.0504C30.5896 18.0504 29.9175 17.3783 29.9175 16.5004C29.9175 15.6224 30.5896 14.9504 31.4675 14.9504C32.3454 14.9504 33.0175 15.6224 33.0175 16.5004C33.0175 17.3783 32.3454 18.0504 31.4675 18.0504Z" fill="#8B6E4B" stroke="#8B6E4B" stroke-width="0.4"/>
<path d="M13.4061 16.9961H1.51465C1.23008 16.9961 1 16.766 1 16.4815C1 16.1969 1.23008 15.9668 1.51465 15.9668H13.4061C13.6906 15.9668 13.9207 16.1969 13.9207 16.4815C13.9207 16.766 13.6906 16.9961 13.4061 16.9961Z" fill="#8B6E4B" stroke="#8B6E4B" stroke-width="0.4"/>
<path d="M13.4062 11.3232H5.43823C5.15366 11.3232 4.92358 11.0931 4.92358 10.8086C4.92358 10.524 5.15366 10.2939 5.43823 10.2939H13.4062C13.6908 10.2939 13.9208 10.524 13.9208 10.8086C13.9208 11.0931 13.6908 11.3232 13.4062 11.3232Z" fill="#8B6E4B" stroke="#8B6E4B" stroke-width="0.4"/>
<path d="M13.4062 22.7422H5.43823C5.15366 22.7422 4.92358 22.5121 4.92358 22.2275C4.92358 21.943 5.15366 21.7129 5.43823 21.7129H13.4062C13.6908 21.7129 13.9208 21.943 13.9208 22.2275C13.9208 22.5121 13.6908 22.7422 13.4062 22.7422Z" fill="#8B6E4B" stroke="#8B6E4B" stroke-width="0.4"/>
</svg>
